# Blender 5.0.0
# www.blender.org
mtllib table-2000x1000x750.mtl
o table-2000x1000x750
v 0.000000 0.700000 -0.100000
v 0.100000 0.700000 -0.100000
v 0.000000 0.200000 -0.100000
v 0.100000 0.200000 -0.100000
v 0.100000 0.000000 -0.100000
v 0.000000 0.000000 -0.100000
v 0.100000 0.100000 -0.100000
v 0.000000 0.100000 -0.100000
v 0.100000 0.700000 -0.900000
v 0.000000 0.700000 -0.900000
v 0.100000 0.200000 -0.900000
v 0.000000 0.200000 -0.900000
v 0.000000 0.000000 -0.900000
v 0.100000 0.000000 -0.900000
v 0.000000 0.100000 -0.900000
v 0.100000 0.100000 -0.900000
v 2.000000 0.200000 -0.900000
v 2.000000 0.700000 -0.900000
v 1.900000 0.200000 -0.900000
v 1.900000 0.700000 -0.900000
v 1.900000 0.200000 -0.100000
v 1.900000 0.700000 -0.100000
v 2.000000 0.200000 -0.100000
v 2.000000 0.700000 -0.100000
v 0.100000 0.700000 -1.000000
v 1.900000 0.700000 -1.000000
v 1.900000 0.700000 0.000000
v 0.100000 0.700000 0.000000
v 0.000000 0.000000 0.000000
v 0.000000 0.750000 -1.000000
v 0.000000 0.750000 0.000000
v 0.000000 0.000000 -1.000000
v 0.100000 0.000000 -1.000000
v 2.000000 0.750000 -1.000000
v 1.900000 0.000000 -1.000000
v 2.000000 0.000000 -1.000000
v 2.000000 0.100000 -0.900000
v 2.000000 0.000000 -0.900000
v 2.000000 0.750000 0.000000
v 2.000000 0.000000 0.000000
v 2.000000 0.100000 -0.100000
v 2.000000 0.000000 -0.100000
v 1.900000 0.000000 0.000000
v 0.100000 0.000000 0.000000
v 1.900000 0.100000 -0.900000
v 1.900000 0.000000 -0.900000
v 1.900000 0.100000 -0.100000
v 1.900000 0.000000 -0.100000
vn -0.0000 -0.0000 -1.0000
vn -0.0000 -0.0000 1.0000
vn -0.0000 -1.0000 -0.0000
vn -1.0000 -0.0000 -0.0000
vn 1.0000 -0.0000 -0.0000
vn -0.0000 1.0000 -0.0000
s 0
f 1//1 2//1 3//1
f 3//1 2//1 4//1
f 5//1 6//1 7//1
f 7//1 6//1 8//1
f 9//2 10//2 11//2
f 11//2 10//2 12//2
f 13//2 14//2 15//2
f 15//2 14//2 16//2
f 17//2 18//2 19//2
f 19//2 18//2 20//2
f 21//1 22//1 23//1
f 23//1 22//1 24//1
f 1//3 10//3 2//3
f 2//3 10//3 9//3
f 25//3 26//3 9//3
f 9//3 26//3 20//3
f 18//3 24//3 20//3
f 20//3 24//3 22//3
f 20//3 22//3 9//3
f 9//3 22//3 27//3
f 9//3 27//3 2//3
f 2//3 27//3 28//3
f 8//4 6//4 29//4
f 12//4 10//4 30//4
f 30//4 10//4 31//4
f 31//4 10//4 1//4
f 31//4 1//4 3//4
f 32//4 13//4 15//4
f 29//4 31//4 8//4
f 8//4 31//4 3//4
f 8//4 3//4 15//4
f 15//4 3//4 12//4
f 15//4 12//4 32//4
f 32//4 12//4 30//4
f 33//1 32//1 25//1
f 25//1 32//1 30//1
f 25//1 30//1 26//1
f 26//1 30//1 34//1
f 26//1 34//1 35//1
f 35//1 34//1 36//1
f 37//5 38//5 36//5
f 39//5 40//5 41//5
f 41//5 40//5 42//5
f 41//5 37//5 17//5
f 17//5 37//5 36//5
f 17//5 36//5 18//5
f 18//5 36//5 34//5
f 18//5 34//5 24//5
f 24//5 34//5 39//5
f 24//5 39//5 23//5
f 23//5 39//5 41//5
f 23//5 41//5 17//5
f 43//2 40//2 27//2
f 27//2 40//2 39//2
f 27//2 39//2 28//2
f 28//2 39//2 31//2
f 28//2 31//2 44//2
f 44//2 31//2 29//2
f 39//6 34//6 31//6
f 31//6 34//6 30//6
f 45//2 46//2 37//2
f 37//2 46//2 38//2
f 47//4 48//4 43//4
f 26//4 35//4 45//4
f 45//4 35//4 46//4
f 27//4 22//4 21//4
f 20//4 26//4 19//4
f 19//4 26//4 45//4
f 19//4 45//4 21//4
f 21//4 45//4 47//4
f 21//4 47//4 27//4
f 27//4 47//4 43//4
f 46//3 35//3 38//3
f 38//3 35//3 36//3
f 41//1 42//1 47//1
f 47//1 42//1 48//1
f 43//3 48//3 40//3
f 40//3 48//3 42//3
f 16//5 14//5 33//5
f 28//5 44//5 7//5
f 7//5 44//5 5//5
f 25//5 9//5 11//5
f 2//5 28//5 4//5
f 4//5 28//5 7//5
f 4//5 7//5 11//5
f 11//5 7//5 16//5
f 11//5 16//5 25//5
f 25//5 16//5 33//5
f 5//3 44//3 6//3
f 6//3 44//3 29//3
f 33//3 14//3 32//3
f 32//3 14//3 13//3
f 19//6 21//6 17//6
f 17//6 21//6 23//6
f 47//3 45//3 41//3
f 41//3 45//3 37//3
f 4//6 11//6 3//6
f 3//6 11//6 12//6
f 16//3 7//3 15//3
f 15//3 7//3 8//3
